# xmcd
#
# Track frame offsets:
#	182
#	26227
#	47600
#	70750
#	87817
#	105285
#	124915
#	150250
#	171422
#	197287
#	236252
#	254752
#
# Disc length: 3673
#
# Revision: 3
# Processed by: cddbd v1.5.1PL0 Copyright (c) Steve Scherf et al.
# Submitted via: EasyCD2 v3.00 - Copyright (c) 1997 Greg Leichner
# Normalized: r1:TSWAP
#
DISCID=910e570c
DTITLE=Soul Music Collection - 13. - Le Star Degli Anni Ottanta
DYEAR=1900
DGENRE=
TTITLE0=Chaka Khan - I Feel For You
TTITLE1=James Brown - Living In America
TTITLE2=Ashford and Simpson - Solid
TTITLE3=Al Jarreau - We're In This Love Together
TTITLE4=Luther Vandross - Never Too Much
TTITLE5=Cameo - Word Up
TTITLE6=Al Jarreau - Your Song
TTITLE7=Rufus and Chaka Khan - Ain't Nobody
TTITLE8=Isley, Jasper, Isley - Caravan Of Love
TTITLE9=Maze (feat. Frankie Beverly) - Joy And Pain
TTITLE10=Gregory Abbott - Shake You Down
TTITLE11=Patty LaBelle - You Are My Friend
EXTD=by David K. (Opatija City) - Croatia
EXTT0=
EXTT1=
EXTT2=
EXTT3=
EXTT4=
EXTT5=
EXTT6=
EXTT7=
EXTT8=
EXTT9=
EXTT10=
EXTT11=
PLAYORDER=
